<?xml version="1.0" encoding="utf-8"?>
<!-- Uploaded to: SVG Repo, www.svgrepo.com, Generator: SVG Repo Mixer Tools -->
<svg width="800px" height="800px" viewBox="0 0 1024 1024" class="icon"  version="1.1" xmlns="http://www.w3.org/2000/svg"><path d="M808.996368 654.76545c-0.127986-0.960404-0.255971-2.047771-0.255971-3.391108 0-12.796519 5.437855-43.319564 8.894492-62.448814l9.339882-69.427616 0.832419-41.33425c1.024909-39.159518 0.127986-118.309949 0.127985-140.449422 0-19.96474-11.770586-34.487529-28.345241-34.487529H686.079959c-11.712224-70.449454-67.25186-209.877038-174.747532-209.877038-109.929448 0-148.512519 146.847681-163.742813 209.877038H228.703217c-18.172941 0-25.337066 10.428272-25.402595 26.680403-5.054922 22.139472 11.007791 344.246628 7.102693 370.097685-25.721023 65.649479-23.673253 131.938887 6.526245 174.105557 17.726527 24.698162 53.941351 53.557394 126.054618 50.550242 66.547427-2.813637 151.264722-0.3215 225.999136 1.791799 90.286208 2.624218 142.434735 3.902027 163.486841-1.024909 53.108932-12.413586 93.162302-49.714752 109.86392-102.250308 5.437855-17.33745 8.12453-35.44691 8.12453-53.491865 0-41.652679-15.165789-82.669525-41.462237-114.919865zM398.202313 303.226711c13.886957-54.455341 46.648215-160.735662 113.130114-160.735662 69.234102 0 113.127042 104.936983 124.773737 160.735662H398.202313z" fill="#27323A" /><path d="M289.297775 869.120962c-13.883885-5.054922-24.698162-12.862047-32.377302-23.610795-10.811205-15.099237-15.099237-34.681044-15.099237-55.350217 0-25.593038 6.526245-52.915417 15.35828-75.694818 2.237189-5.821812 3.069608-32.505287 3.069608-69.234102 0-65.583951-2.624218-162.396404-4.861407-231.758491 15.164766-0.960404 28.537732 0.062457 31.991297 3.135137-3.580527 33.848625-6.654231 146.786248-5.054922 165.85304 1.346409 16.314589 13.566481 28.472203 29.435679 35.447934-5.121474 42.999088-19.709793 184.985362-22.461996 251.212312z" fill="#FFFFFF" /><path d="M314.956341 579.709537c-1.215352-14.525861 1.280881-123.813333 4.222503-162.52439 0.704433-9.726911-2.814661-18.621402-9.978786-25.019662-12.734062-11.390724-36.027453-12.734062-54.900732-11.581166-0.382933-10.748748-0.704433-20.347673-1.024909-28.154799 43.575536 0.127986 490.520934 1.215352 526.223815 1.28088 0.3215 5.054922 0.448462 11.004719 0.576448 17.402979-25.147647-1.919785-54.261827 1.791799-64.562113 32.633273-8.255587 24.826147-10.493801 87.534004 1.152894 159.261267 1.277809 7.935111-1.090438 14.142928-7.233749 19.132321-9.019406 7.230678-23.801238 9.342954-34.998449 4.926936-9.342954-3.711584-14.781832-11.070248-16.380117-21.946981l-2.241285-36.855777c-4.030013-86.509095-8.190059-124.708209-23.417281-137.44227-17.916969-14.972275-48.308957-13.949414-83.566449-12.734062l-41.207289 0.510919c-62.579871-1.854256-98.027805-2.110228-115.688802 11.967172-14.650775 11.770586-18.555874 47.73251-22.778377 149.982818l-1.532757 33.97661c-0.641976 11.262739-8.383573 17.084551-23.037419 17.274993-16.25418 0.260067-29.305646-7.929992-29.627146-12.091061z" fill="#79CCBF" /><path d="M570.391156 877.373478c-75.504376-2.175756-161.181052-4.668917-229.454749-1.788727-6.909178 0.255971-13.05249-0.259043-19.260307-0.704434 2.558689-53.491865 15.869199-201.237493 22.073944-250.379893 0.448462 0 0.897947 0.062457 1.280881 0.062457 31.994369-0.44539 53.685379-19.322764 55.284688-48.181996l1.536852-34.487529c1.598285-37.305262 4.799974-114.918841 12.2856-127.525941 7.420097-5.500312 53.813365-4.156974 90.987569-3.069608 1.536852 0.062457 44.856416-0.448462 44.856416-0.448462 24.888604-0.894876 53.108932-1.854256 61.426976 5.12045 6.909178 10.811205 10.237829 82.990001 11.643624 113.831475l2.561761 39.990913c3.263123 22.395444 16.636089 39.798423 36.790248 47.73251 4.288032 1.663814 8.766506 2.430704 13.310509 3.200666l6.588702 35.896395c9.533396 51.061161 32.44283 173.849585 37.753724 221.071176-17.407074 3.457661-84.46542 1.537876-149.666438-0.319452z" fill="#F4CE73" /><path d="M795.495417 808.332891c-5.054922 15.869199-17.019022 40.88886-44.020926 57.076487-4.481546-36.344857-15.869199-102.056794-36.921305-214.800902L708.603388 618.358136c7.741597-2.430704 15.161694-5.693826 21.369511-10.748748 15.227223-12.223143 22.139472-30.396084 19.004336-49.84581-12.413586-76.591742-6.974707-129.828659-2.368247-143.650087 3.328651-9.981858 14.588318-11.9641 33.53122-10.109843-0.259043 26.172557-0.960404 54.196298-1.474395 72.880157l-0.832418 42.615131-8.574016 60.788072c-5.759355 32.122354-9.595853 54.645784-9.595853 71.025901 0 13.563409 2.621146 22.906362 8.956949 30.009055 21.308077 23.9282 32.823716 55.988097 32.823715 87.979394 0 13.182524-1.981218 26.362999-5.948773 39.031533z" fill="#FFFFFF" /><path d="M454.639896 512.523205c0 33.720639 27.450366 61.171005 61.171005 61.171005s61.171005-27.450366 61.171005-61.171005-27.450366-61.171005-61.171005-61.171004-61.171005 27.450366-61.171005 61.171004z" fill="#27323A" /><path d="M487.401155 512.523205c0-15.675684 12.734062-28.41077 28.41077-28.41077 15.675684 0 28.41077 12.734062 28.41077 28.41077s-12.734062 28.41077-28.41077 28.41077c-15.676708 0-28.41077-12.734062-28.41077-28.41077z" fill="#FFFFFF" /></svg>