<?xml version="1.0" encoding="iso-8859-1"?>
<!-- Uploaded to: SVG Repo, www.svgrepo.com, Generator: SVG Repo Mixer Tools -->
<svg version="1.1" id="Layer_1" xmlns="http://www.w3.org/2000/svg" xmlns:xlink="http://www.w3.org/1999/xlink" 
	 viewBox="0 0 511.661 511.661" xml:space="preserve">
<path style="fill:#9F633C;" d="M333.2,153.031c0-6,4.8-11.2,10.8-11.2h137.2c6,0,11.2,5.6,11.2,11.2v132.8h-476v-132.8
	c0-6,5.2-11.2,11.2-11.2h137.2c6,0,10.8,4.8,10.8,10.8"/>
<path style="fill:#140500;" d="M492,289.831H16c-2.4,0-4-1.6-4-4v-132.8c0-8,7.2-15.2,15.2-15.2h137.2c8,0,14.8,6.8,14.8,14.8
	c0,2.4-1.6,4-4,4s-4-1.6-4-4c0-3.6-3.2-6.8-6.8-6.8H27.2c-3.6,0-7.2,3.6-7.2,7.2v128.8h468v-128.8c0-3.6-3.6-7.2-7.2-7.2H344
	c-3.6,0-6.8,3.2-6.8,7.2c0,2.4-1.6,4-4,4s-4-1.6-4-4c0-8,6.8-15.2,14.8-15.2h137.2c8,0,15.2,7.2,15.2,15.2v132.8
	C496,288.231,494.4,289.831,492,289.831z"/>
<rect x="28" y="281.831" style="fill:#9F633C;" width="456" height="76"/>
<g>
	<path style="fill:#140500;" d="M484,361.831H28c-2.4,0-4-1.6-4-4v-76c0-2.4,1.6-4,4-4h456c2.4,0,4,1.6,4,4v76
		C488,360.231,486.4,361.831,484,361.831z M32,353.831h448v-68H32V353.831z"/>
	<path style="fill:#140500;" d="M78.8,233.031c-1.2,0-2.4-0.4-3.2-1.6c-1.2-1.6-1.2-4.4,0.8-5.6l7.2-5.6c1.6-1.2,4.4-1.2,5.6,0.8
		c1.2,1.6,1.2,4.4-0.8,5.6l-7.2,5.6C80.8,233.031,80,233.031,78.8,233.031z"/>
	<path style="fill:#140500;" d="M86,205.431c-0.8,0-1.6-0.4-2.4-0.8l-7.2-5.6c-1.6-1.2-2-4-0.8-5.6s4-2,5.6-0.8l7.2,5.6
		c1.6,1.2,2,4,0.8,5.6C88.4,205.031,87.2,205.431,86,205.431z"/>
	<path style="fill:#140500;" d="M112.4,233.031c-0.8,0-1.6-0.4-2.4-0.8l-7.2-5.6c-1.6-1.2-2-4-0.8-5.6s4-2,5.6-0.8l7.2,5.6
		c1.6,1.2,2,4,0.8,5.6C114.8,232.631,113.6,233.031,112.4,233.031z"/>
	<path style="fill:#140500;" d="M105.2,205.431c-1.2,0-2.4-0.4-3.2-1.6c-1.2-1.6-1.2-4.4,0.8-5.6l7.2-5.6c1.6-1.2,4.4-1.2,5.6,0.8
		c1.2,1.6,1.2,4.4-0.8,5.6l-7.2,5.6C107.2,205.031,106,205.431,105.2,205.431z"/>
	<path style="fill:#140500;" d="M239.6,233.031c-1.2,0-2.4-0.4-3.2-1.6c-1.2-1.6-1.2-4.4,0.8-5.6l7.2-5.6c1.6-1.2,4.4-1.2,5.6,0.8
		c1.2,1.6,1.2,4.4-0.8,5.6l-7.2,5.6C241.6,233.031,240.4,233.031,239.6,233.031z"/>
	<path style="fill:#140500;" d="M246.8,205.431c-0.8,0-1.6-0.4-2.4-0.8l-7.2-5.6c-1.6-1.2-2-4-0.8-5.6s4-2,5.6-0.8l7.2,5.6
		c1.6,1.2,2,4,0.8,5.6C249.2,205.031,248,205.431,246.8,205.431z"/>
	<path style="fill:#140500;" d="M273.2,233.031c-0.8,0-1.6-0.4-2.4-0.8l-7.2-5.6c-1.6-1.2-2-4-0.8-5.6s4-2,5.6-0.8l7.2,5.6
		c1.6,1.2,2,4,0.8,5.6C275.6,232.631,274.4,233.031,273.2,233.031z"/>
	<path style="fill:#140500;" d="M266,205.431c-1.2,0-2.4-0.4-3.2-1.6c-1.2-1.6-1.2-4.4,0.8-5.6l7.2-5.6c1.6-1.2,4.4-1.2,5.6,0.8
		c1.2,1.6,1.2,4.4-0.8,5.6l-7.2,5.6C268,205.031,266.8,205.431,266,205.431z"/>
	<path style="fill:#140500;" d="M395.6,233.031c-1.2,0-2.4-0.4-3.2-1.6c-1.2-1.6-1.2-4.4,0.8-5.6l7.2-5.6c1.6-1.2,4.4-1.2,5.6,0.8
		s1.2,4.4-0.8,5.6l-7.2,5.6C397.2,233.031,396.4,233.031,395.6,233.031z"/>
	<path style="fill:#140500;" d="M402.8,205.431c-0.8,0-1.6-0.4-2.4-0.8l-7.2-5.6c-1.6-1.2-2-4-0.8-5.6s4-2,5.6-0.8l7.2,5.6
		c1.6,1.2,2,4,0.8,5.6C404.8,205.031,403.6,205.431,402.8,205.431z"/>
	<path style="fill:#140500;" d="M428.8,233.031c-0.8,0-1.6-0.4-2.4-0.8l-7.2-5.6c-1.6-1.2-2-4-0.8-5.6s4-2,5.6-0.8l7.2,5.6
		c1.6,1.2,2,4,0.8,5.6C431.2,232.631,430,233.031,428.8,233.031z"/>
	<path style="fill:#140500;" d="M422,205.431c-1.2,0-2.4-0.4-3.2-1.6c-1.2-1.6-1.2-4.4,0.8-5.6l7.2-5.6c1.6-1.2,4.4-1.2,5.6,0.8
		c1.2,1.6,1.2,4.4-0.8,5.6l-7.2,5.6C423.6,205.031,422.8,205.431,422,205.431z"/>
	<path style="fill:#140500;" d="M480,285.831H28c-2.4,0-4-1.6-4-4s1.6-4,4-4h452c2.4,0,4,1.6,4,4S482.4,285.831,480,285.831z"/>
	<path style="fill:#140500;" d="M480,305.831h-40c-2.4,0-4-1.6-4-4s1.6-4,4-4h40c2.4,0,4,1.6,4,4S482.4,305.831,480,305.831z"/>
	<path style="fill:#140500;" d="M420,305.831H28c-2.4,0-4-1.6-4-4s1.6-4,4-4h392c2.4,0,4,1.6,4,4S422.4,305.831,420,305.831z"/>
</g>
<path style="fill:#895129;" d="M508,357.831v-48.4v-13.6v-27.6c0-5.6-6.4-10.4-12-10.4h-2.8c-5.6,0-8.8,4.4-8.8,10.4v89.6H508z"/>
<path style="fill:#140500;" d="M508,361.831h-24c-2.4,0-4-1.6-4-4v-89.6c0-8.4,5.2-14.4,12.8-14.4h2.8c7.6,0,16,6,16,14.4v89.6
	C512,360.231,510.4,361.831,508,361.831z M488,353.831h16v-85.6c0-3.2-4.4-6.4-8-6.4h-2.8c-4.4,0-4.8,4-4.8,6.4v85.6H488z"/>
<path style="fill:#895129;" d="M28,357.831v-89.6c0-5.6-8-10.4-13.6-10.4h-2.8c-6,0-7.2,4.4-7.2,10.4v27.6v12.8v49.2H28z"/>
<path style="fill:#140500;" d="M28,361.831H4c-2.4,0-4-1.6-4-4v-89.6c0-12.4,7.2-14.4,11.2-14.4H14c7.2,0,17.6,5.6,17.6,14.4v89.6
	C32,360.231,30.4,361.831,28,361.831z M8,353.831h16v-85.6c0-2.8-5.2-6.4-9.6-6.4h-2.8c-1.6,0-3.2,0-3.2,6.4v85.6H8z"/>
<path style="fill:#9F633C;" d="M174.8,153.831c0-6,4.8-12,10.8-12h137.2c6,0,10,6,10,12"/>
<g>
	<path style="fill:#140500;" d="M332.8,157.831c-2.4,0-4-1.6-4-4c0-3.6-2.4-8-6-8H185.6c-3.6,0-6.8,4-6.8,8c0,2.4-1.6,4-4,4
		s-4-1.6-4-4c0-8.4,6.8-16,14.8-16h137.2c8.8,0,14,8.4,14,16C336.8,155.831,334.8,157.831,332.8,157.831z"/>
	<path style="fill:#140500;" d="M28,373.831c-2.4,0-4-1.6-4-4v-12c0-2.4,1.6-4,4-4s4,1.6,4,4v12C32,372.231,30.4,373.831,28,373.831
		z"/>
	<path style="fill:#140500;" d="M252,373.831c-2.4,0-4-1.6-4-4v-12c0-2.4,1.6-4,4-4s4,1.6,4,4v12
		C256,372.231,254.4,373.831,252,373.831z"/>
	<path style="fill:#140500;" d="M480,373.831c-2.4,0-4-1.6-4-4v-12c0-2.4,1.6-4,4-4s4,1.6,4,4v12
		C484,372.231,482.4,373.831,480,373.831z"/>
	<path style="fill:#140500;" d="M176,285.831c-2.4,0-4-1.6-4-4v-108c0-2.4,1.6-4,4-4s4,1.6,4,4v108
		C180,284.231,178.4,285.831,176,285.831z"/>
	<path style="fill:#140500;" d="M336,285.831c-2.4,0-4-1.6-4-4v-108c0-2.4,1.6-4,4-4s4,1.6,4,4v108
		C340,284.231,338.4,285.831,336,285.831z"/>
	<path style="fill:#140500;" d="M16,345.831c-2.4,0-4-1.6-4-4v-72c0-2.4,1.6-4,4-4s4,1.6,4,4v72C20,344.231,18.4,345.831,16,345.831
		z"/>
	<path style="fill:#140500;" d="M496,345.831c-2.4,0-4-1.6-4-4v-72c0-2.4,1.6-4,4-4s4,1.6,4,4v72
		C500,344.231,498.4,345.831,496,345.831z"/>
</g>
</svg>