<?xml version="1.0" encoding="utf-8"?>
<!-- Uploaded to: SVG Repo, www.svgrepo.com, Generator: SVG Repo Mixer Tools -->
<svg width="800px" height="800px" viewBox="-140.29 0 425.843 425.843" xmlns="http://www.w3.org/2000/svg"><defs><style>.a{fill:#ffffff;}.b{fill:#c6c6c6;}.c{fill:#211715;}.d{fill:#c6a38b;}.e{fill:#645d5c;}.f{fill:#7a7473;}.g{fill:#a095c1;}</style></defs><path class="a" d="M103.744,93.654c-.277-.114-4.537-1.85-4.718-1.915-2.735-.988-2.627-2.746-2.972-4.714-.2-1.11-.348-2.222-.452-3.338,7.095-3.021,12.807-12.576,13.8-15.276.15-.455.455-1.312.733-2.331l.561-.086A7.121,7.121,0,0,0,114.01,64.5a10.739,10.739,0,0,0,2.778-3.646,16.9,16.9,0,0,0,1.724-8.959,5.642,5.642,0,0,0-.591-2.269,3.987,3.987,0,0,0-2.868-1.907,4.225,4.225,0,0,0-3.381.989s4.31-28.553-28.8-28.553c-30.667,0-27.9,28.553-27.9,28.553a4.224,4.224,0,0,0-3.381-.989,3.989,3.989,0,0,0-2.868,1.907,5.641,5.641,0,0,0-.59,2.269,16.9,16.9,0,0,0,1.723,8.959A10.752,10.752,0,0,0,52.635,64.5a7.126,7.126,0,0,0,3.312,1.493l1.08.166a28.736,28.736,0,0,0,5.478,10.692,24.738,24.738,0,0,0,8.078,6.571c-.1,1.2-.265,2.405-.475,3.6-.345,1.968-.237,3.726-2.972,4.714-.181.065-3.569,1.513-4.1,1.693,0,0-1.348,22.673,19.541,22.673C106.136,116.105,103.744,93.654,103.744,93.654Z"/><path class="b" d="M116.887,29.413C115.6,23.145,113,17.56,109.4,13.89a14.92,14.92,0,0,0-6.7-4.105l-5.33-2.561C93.01,2.71,83.533,1.194,76.923,2.372,69.277,3.734,61.76,8.156,56,14.4c-2.852,3.094-6.48,8.9-7.19,17.9-.36,4.588-.56,10.166,1.288,15.953a4.059,4.059,0,0,1,1.491-.535,4.224,4.224,0,0,1,3.381.989l2.649-4.761c.4-.991.7-2.023,1.329-3.25a17.284,17.284,0,0,1,4.213-6.024,33.479,33.479,0,0,0,6.912-1.793c1.029-.419,2.129-.859,3.183-1.375a49.945,49.945,0,0,0,7.988.155c7.7-1.482,13.037-5.926,14.909-8.284l5.575,2.579a27.549,27.549,0,0,1,8.214,17.7l1.727,5.055a4.225,4.225,0,0,1,3.381-.989,4.164,4.164,0,0,1,1.574.58A43.908,43.908,0,0,0,116.887,29.413Z"/><path class="a" d="M137.816,210.142c.57,6.28,2.17,10.91,4.03,16.93a33.587,33.587,0,0,1,1.5,8.9,63.621,63.621,0,0,1-.92,9.41,11.469,11.469,0,0,1-2.89,5.22c-1.38,1.44-3.28,1.23-4.88.24-.46-.28-.63-1.58-.58-3.27.12-3.95.24-5.67.02-11.58-.07-1.84-.19-2.34-.39-5.1-.71.65-3.09,3.81-3.65,4.43-1.16,1.29-2.43.32-2.42-1.42.05-6.61-1.09-16.68-.09-23.31Z"/><path class="c" d="M135.816,210.142a74.23,74.23,0,0,0,3.352,15.049c1.345,4.323,2.391,8.553,2.087,13.108-.217,3.241-.237,6.688-2.031,9.512-.388.611-.995,1.588-1.742,1.784a2.173,2.173,0,0,1-1.135-.131c-.04-.009-.64-.265-.272-.022.258.17.035.28.047-.149.047-1.8.026-3.622.068-5.43.1-4.345-.162-8.644-.484-12.971a2.026,2.026,0,0,0-3.414-1.415,20.458,20.458,0,0,0-1.692,1.99c-.337.421-.67.845-1,1.268-.2.257-.673.655-.777.967-.09.271-.129.058-.1.241l.956.293a.6.6,0,0,1-.036-.229,5.862,5.862,0,0,0-.014-1.8c-.023-1.367-.078-2.733-.137-4.1-.242-5.6-.821-11.407-.015-16.988a2.067,2.067,0,0,0-1.4-2.46,2.014,2.014,0,0,0-2.46,1.4c-1.008,6.981-.208,14.068-.016,21.078.043,1.566-.218,3.392.488,4.836a3.18,3.18,0,0,0,4.438,1.515A8.78,8.78,0,0,0,132.866,235a26.685,26.685,0,0,1,2.255-2.7l-3.415-1.414c.322,4.327.587,8.626.484,12.971-.05,2.147-.372,4.44.084,6.555.545,2.533,3.615,3.549,5.941,3.1,2.551-.488,4.337-3.086,5.314-5.316a18.849,18.849,0,0,0,1.338-5.626,39.261,39.261,0,0,0-.359-13.276c-.712-3.225-1.891-6.341-2.791-9.515a54.306,54.306,0,0,1-1.9-9.647,2.054,2.054,0,0,0-2-2,2.014,2.014,0,0,0-2,2Z"/><path class="d" d="M4.239,401.985c1.32-20.827,7.338-140.055,8.918-169.571.285,3.357,2.335,4.421,6,4.66a4.364,4.364,0,0,0,4.129-2.037c-1.859,27.042-7.94,142.1-9.742,169.617-2.371-.219-7.206-.5-9.439-.672l.065-.972Q4.2,402.547,4.239,401.985Z"/><path class="e" d="M12.435,422.871c.9-1.784,1.831-14.863,1.654-18.163-2.315-.25-8.825-.611-10.687-.781-1.008,3.136-1.64,16.126-1.273,18.374C3.032,423.488,10.764,424.6,12.435,422.871Z"/><path class="c" d="M6.173,403.01c.549-8.259.957-16.528,1.4-24.793q1.142-21.245,2.235-42.49,1.24-23.883,2.468-47.768,1.049-20.373,2.1-40.747c.36-6.911.673-13.827,1.108-20.734.012-.192.023-.384.038-.576.205-2.566-3.8-2.552-4,0-.468,5.856-.647,11.748-.953,17.614q-1.013,19.408-2.006,38.818-1.226,23.778-2.455,47.555Q4.97,351.9,3.8,373.911c-.488,9.154-.958,18.309-1.526,27.459q-.051.819-.1,1.64c-.171,2.57,3.829,2.56,4,0Z"/><path class="c" d="M21.816,228.919c-.311,1.815-.364,3.692-.491,5.525-.266,3.812-.5,7.625-.732,11.439q-1.107,18.18-2.107,36.367-1.281,22.714-2.537,45.431-1.215,21.87-2.446,43.739c-.585,10.317-1.163,20.635-1.817,30.947q-.075,1.18-.153,2.361c-.169,2.57,3.832,2.56,4,0,.626-9.506,1.156-19.018,1.7-28.529q1.215-21.3,2.389-42.6,1.275-22.9,2.554-45.806,1.071-19.07,2.192-38.135c.39-6.529.7-13.078,1.3-19.591.011-.118.032-.236.039-.354.02-.353-.107.694-.035.273a2.058,2.058,0,0,0-1.4-2.46,2.016,2.016,0,0,0-2.46,1.4Z"/><path class="e" d="M20.314,210.616c3.678.24,5.316,2.738,5.186,8.506-.064,2.852-.9,9.515-1.132,12.311-.351,4.275-2.721,5.8-5.208,5.641-3.9-.254-5.973-1.442-6.036-5.33.1-1.48.644-11.746.753-13.1C14.443,211.611,17.413,210.427,20.314,210.616Z"/><path class="c" d="M14.162,423.88a12.16,12.16,0,0,0,.865-3.6c.265-1.891.46-3.79.621-5.693a75.094,75.094,0,0,0,.441-9.875,2.063,2.063,0,0,0-2-2c-3.552-.375-7.13-.464-10.687-.781A2.02,2.02,0,0,0,1.473,403.4a29.609,29.609,0,0,0-.907,5.941c-.243,2.535-.4,5.079-.485,7.623A36.038,36.038,0,0,0,.113,422.2c.29,2.568,3.511,3.041,5.6,3.33,2.551.351,6.1.7,8.132-1.241,1.865-1.781-.966-4.607-2.828-2.828q-.227.209.126-.085a2.062,2.062,0,0,1-.227.132c.06-.186.29-.077-.066.015-.216.055-.429.108-.646.156-.45.1.245-.012-.2.031a16.016,16.016,0,0,1-3.018-.026,15.262,15.262,0,0,1-2.45-.44c-.189-.051-.379-.105-.565-.167-.059-.019-.615-.246-.308-.1.333.154-.193-.088-.195-.115q-.266-.175.173.145a.811.811,0,0,1-.106-.113l.514.883c.13.854.017.037,0-.169-.014-.246-.022-.494-.028-.741-.016-.676-.011-1.353,0-2.029.029-1.8.109-3.591.218-5.383.11-1.818.25-3.636.454-5.446.022-.194.044-.388.068-.582.008-.065.092-.7.059-.469s.054-.361.063-.419c.025-.159.05-.317.077-.475a12.584,12.584,0,0,1,.359-1.6L3.4,405.927c3.557.317,7.135.406,10.687.781l-2-2a73.116,73.116,0,0,1-.4,9.425c-.143,1.753-.306,3.508-.538,5.252.058-.434-.012.08-.026.174-.029.19-.056.38-.087.57-.05.31-.1.619-.165.927-.046.228-.093.456-.155.681-.024.089-.059.179-.078.269-.092.446.179-.37.072-.144a2.054,2.054,0,0,0,.717,2.736A2.018,2.018,0,0,0,14.162,423.88Z"/><path class="c" d="M20.314,212.616a2.8,2.8,0,0,1,2.788,2.322,18.145,18.145,0,0,1,.259,6.532c-.207,2.552-.5,5.1-.769,7.644-.184,1.766-.02,4.392-1.634,5.561-1.087.788-3.422.432-4.665-.24a1.841,1.841,0,0,1-.984-1.278,5.721,5.721,0,0,1-.145-2.073c.215-3.659.4-7.318.619-10.976.118-1.967.2-4.1,1.18-5.859.849-1.528,1.708-1.723,3.351-1.633,2.573.141,2.565-3.86,0-4a7.116,7.116,0,0,0-5.66,2.047c-2.045,2.165-2.58,5.334-2.792,8.189-.306,4.118-.461,8.249-.706,12.372a7,7,0,0,0,2.721,6.414,9.682,9.682,0,0,0,7.743,1.114c3.233-1.118,4.462-4.262,4.757-7.425.261-2.81.6-5.612.857-8.422.291-3.109.657-6.543-.442-9.539a7.02,7.02,0,0,0-6.478-4.75C17.749,208.409,17.762,212.41,20.314,212.616Z"/><path class="a" d="M24.074,195.919c-1.678,1.9-5.565,4.018-7.872,4.949-4.455,1.8-7.343,3.428-9.821,7.857-2.124,3.8-2.268,5.5-3.1,10.352-.314,1.83-.43,5.617.234,7.365.729,1.92,2.5,4.02,4.265,2.227,1.4,2.549,1.984,2.766,2.927,3.433.8.565,3.322-.719,3.981-2.264.981-2.3,1.547-5.814,2.886-8.57a37.1,37.1,0,0,1,3.337-5.494l.5.388c4.2,5.472,8.468,1.569,9.958-1.088,1.953-3.481,2.192-10.876,4.622-14.639"/><path class="c" d="M22.229,210.918c-3.318,3.914-6.3,8.13-7.812,13.085-.389,1.272-.715,2.562-1.122,3.828a3.1,3.1,0,0,1-1.556,2.2c-.018.009-.448.175-.451.182-.15.037-.168.044-.056.022l.483.137c-.009.015-.836-.615-.461-.307a7.969,7.969,0,0,1-1.748-2.409,2.027,2.027,0,0,0-3.142-.4q-.486.291.121.108a.735.735,0,0,1-.2-.156c-.135-.355-.572-.722-.745-1.1a5.75,5.75,0,0,1-.451-1.948,20.021,20.021,0,0,1,.2-5c.586-3.488,1.209-6.683,3.019-9.773a15.034,15.034,0,0,1,7.551-6.23c3.413-1.469,7.061-3.039,9.633-5.827,1.744-1.889-1.078-4.725-2.828-2.828-2.244,2.432-5.51,3.786-8.494,5.06a18.982,18.982,0,0,0-7.937,5.767,22.447,22.447,0,0,0-4.122,8.96,33.62,33.62,0,0,0-.989,10.2,8.976,8.976,0,0,0,2.1,5.286,4.009,4.009,0,0,0,5.978.306l-3.141-.405c1,1.775,2.658,4.425,4.979,4.546,2.983.156,5.147-2.433,6.007-4.982,1.063-3.149,1.734-6.238,3.428-9.143a44.7,44.7,0,0,1,4.592-6.353c1.655-1.952-1.161-4.8-2.829-2.828Z"/><path class="c" d="M10.583,212.857a81.815,81.815,0,0,0-4.991,15.28,2.046,2.046,0,0,0,1.4,2.46,2.02,2.02,0,0,0,2.46-1.4,76.009,76.009,0,0,1,2.14-7.6q.635-1.943,1.334-3.863.312-.852.641-1.7.156-.4.318-.8c.04-.1.081-.2.122-.295-.194.467,0,0,.033-.071a2.065,2.065,0,0,0-.718-2.736,2.014,2.014,0,0,0-2.736.717Z"/><path class="c" d="M34.266,199.426c-2.414,3.843-2.574,8.636-3.9,12.875a6.974,6.974,0,0,1-1.02,2.26,6.163,6.163,0,0,1-2.291,2.1,2.437,2.437,0,0,1-1.711.174,5.691,5.691,0,0,1-2.512-2.086,2.011,2.011,0,0,0-2.828,0,2.048,2.048,0,0,0,0,2.828c1.82,2.3,4.518,3.887,7.511,3.148a9.562,9.562,0,0,0,5.925-5.315,36.266,36.266,0,0,0,2.052-7.268,21.1,21.1,0,0,1,2.233-6.7c1.373-2.187-2.087-4.2-3.454-2.019Z"/><path class="a" d="M101.861,98.955c.613-.222,1.207-.451,1.777-.685-.787,9.9-2.4,30.147-2.8,51.129-.272,14.377.376,28.824.913,39.956-10.956,0-24.422,0-36.376,0,.538-11.127,1.186-25.574.914-39.951-.4-21.18-2.042-41.607-2.815-51.419a53.516,53.516,0,0,0,20.2,4.388A57.29,57.29,0,0,0,101.861,98.955Z"/><path class="a" d="M78.665,390.612a23.88,23.88,0,0,1-13.859,4.277,8.464,8.464,0,0,1-4.061-.851,3.686,3.686,0,0,1-1.481-1.547,28.361,28.361,0,0,0,1.776-6.631,136.9,136.9,0,0,0,18,.1q.015,2.175.033,4.352Q78.872,390.465,78.665,390.612Z"/><path class="a" d="M90.15,387.405l.01-1.355a136.913,136.913,0,0,0,17.98-.313,29.049,29.049,0,0,0,1.78,6.7,3.664,3.664,0,0,1-1.5,1.6,8.465,8.465,0,0,1-4.062.851,23.825,23.825,0,0,1-14.225-4.544Z"/><path class="c" d="M59.111,385.329a28.762,28.762,0,0,1-1.78,6.64,2.009,2.009,0,0,0,.2,1.541,2,2,0,0,0,2.736.718,2.325,2.325,0,0,0,.919-1.195,28.762,28.762,0,0,0,1.78-6.64,2.2,2.2,0,0,0-.2-1.542,2,2,0,0,0-2.737-.717,1.926,1.926,0,0,0-.919,1.195Z"/><path class="c" d="M81.07,390.311l-.03-4.35a2.071,2.071,0,0,0-.586-1.414,2,2,0,0,0-2.829,0,2.066,2.066,0,0,0-.585,1.414l.03,4.35a2.065,2.065,0,0,0,.585,1.414,2,2,0,0,0,2.829,0,2.069,2.069,0,0,0,.586-1.414Z"/><path class="c" d="M111.848,391.909a29.563,29.563,0,0,1-1.78-6.71,1.992,1.992,0,0,0-.919-1.195,2,2,0,0,0-2.736.717,2.349,2.349,0,0,0-.2,1.542,29.577,29.577,0,0,0,1.78,6.71,2.18,2.18,0,0,0,.919,1.195,2,2,0,0,0,2.737-.718,1.948,1.948,0,0,0,.2-1.541Z"/><path class="c" d="M88.16,386.051l-.03,4.29a2.056,2.056,0,0,0,.585,1.414,2,2,0,0,0,2.829,0,2.089,2.089,0,0,0,.586-1.414l.03-4.29a2.06,2.06,0,0,0-.586-1.414,2,2,0,0,0-2.829,0,2.088,2.088,0,0,0-.585,1.414Z"/><path class="f" d="M129.292,419.907q.165-.2.312-.414a7.262,7.262,0,0,0,.553-6.5,20.947,20.947,0,0,0-3.6-5.82q-5.2-6.6-11-12.763c-1.506-1.6-3.209-3.274-5.461-3.668a3.071,3.071,0,0,1-1.683,3.3,8.465,8.465,0,0,1-4.062.851,23.479,23.479,0,0,1-15.777-5.826c.026,4.4-.021,8.527,0,12.932a8.6,8.6,0,0,0,.416,3.177c.976,2.449,3.869,3.628,6.191,5.1,6.041,3.836,9.223,8.175,15.552,11.586a17.471,17.471,0,0,0,15.108.5A9.487,9.487,0,0,0,129.292,419.907Z"/><path class="f" d="M39.87,419.907q-.165-.2-.312-.414a7.262,7.262,0,0,1-.553-6.5,20.947,20.947,0,0,1,3.595-5.82q5.2-6.6,11-12.763c1.507-1.6,3.209-3.274,5.461-3.668a3.073,3.073,0,0,0,1.684,3.3,8.464,8.464,0,0,0,4.061.851,23.48,23.48,0,0,0,15.778-5.826c-.026,4.4.021,8.527,0,12.932a8.623,8.623,0,0,1-.417,3.177c-.975,2.449-3.869,3.628-6.191,5.1-6.04,3.836-9.222,8.175-15.552,11.586a17.471,17.471,0,0,1-15.108.5A9.483,9.483,0,0,1,39.87,419.907Z"/><path class="c" d="M41.284,418.493c-1.567-1.986-.588-4.873.537-6.793a54.958,54.958,0,0,1,5.43-7.1q2.922-3.51,6.008-6.879c1.778-1.942,3.62-4.475,6.334-5.047l-2.46-2.46a5.328,5.328,0,0,0,3.637,6.025c2.565,1,5.622.735,8.285.332A24.931,24.931,0,0,0,82,390.477l-3.414-1.414c-.024,4.51.1,9.029-.007,13.538a4.226,4.226,0,0,1-2.011,3.76c-1.512,1.068-3.192,1.881-4.722,2.927-6.1,4.168-11.377,11.125-19.036,12.369-3.82.62-8.848-.106-11.524-3.164-1.7-1.941-4.518.9-2.828,2.828,2.829,3.234,7.72,4.52,11.876,4.518a21.63,21.63,0,0,0,12.434-4.3c3.53-2.449,6.566-5.516,10.034-8.043,3.159-2.3,7.822-3.841,9.3-7.788.885-2.37.5-5.322.492-7.8,0-2.946-.02-5.892,0-8.838a2.023,2.023,0,0,0-3.414-1.414,20.629,20.629,0,0,1-8.692,4.552,20.946,20.946,0,0,1-5.672.688c-.812-.014-4.115-.138-3.816-1.616a2.028,2.028,0,0,0-2.46-2.46c-3.392.715-5.707,3.468-7.941,5.9q-3.8,4.142-7.357,8.5c-4.055,4.963-9.767,11.784-4.776,18.111a2.01,2.01,0,0,0,2.828,0A2.05,2.05,0,0,0,41.284,418.493Z"/><path class="c" d="M130.706,421.321c4.99-6.327-.722-13.147-4.777-18.111q-3.553-4.353-7.356-8.5c-2.234-2.434-4.55-5.187-7.941-5.9a2.027,2.027,0,0,0-2.46,2.46c.3,1.481-3.021,1.6-3.817,1.616a20.944,20.944,0,0,1-5.671-.688,20.629,20.629,0,0,1-8.692-4.552,2.024,2.024,0,0,0-3.414,1.414c.013,2.55,0,5.1,0,7.65a59.162,59.162,0,0,0,.112,7.295c.565,4.607,4.837,6.215,8.244,8.486,7.3,4.864,12.945,12.436,22.287,13.273,4.607.413,10.323-.829,13.487-4.446,1.689-1.93-1.13-4.77-2.829-2.828-2.387,2.728-6.594,3.51-10.055,3.317-3.942-.22-7.3-2.144-10.408-4.447-3-2.226-5.689-4.844-8.691-7.073a57.983,57.983,0,0,0-4.895-3.145c-1.243-.743-2.684-1.592-3.088-3.08a12.848,12.848,0,0,1-.166-3.286q0-1.914,0-3.828c.006-2.63.016-5.259,0-7.888l-3.414,1.414a24.931,24.931,0,0,0,12.943,6.09c2.59.392,5.58.666,8.094-.252,2.6-.949,4.4-3.276,3.828-6.105l-2.461,2.46c2.65.558,4.437,2.978,6.176,4.874q3.168,3.452,6.167,7.052a58.153,58.153,0,0,1,5.319,6.921c1.18,1.954,2.267,4.923.647,6.976a2.064,2.064,0,0,0,0,2.828A2.014,2.014,0,0,0,130.706,421.321Z"/><path class="a" d="M83.5,189.355H51.591c-1.4,4.843-3.153,13.085-4.291,19.536-5.485,31.082-.183,62.81,2.2,93.229,2.468,31.549,3.976,51.76,6.445,83.309a153.946,153.946,0,0,0,28.1.264,148.079,148.079,0,0,0,27.56-.264c2.468-31.549,3.976-51.76,6.445-83.309,2.38-30.419,7.682-62.147,2.2-93.229-1.138-6.449-2.891-14.69-4.292-19.536H83.5Z"/><path class="c" d="M82.6,246.827c-.366,4-.351,8.059-.394,12.077-.065,6.032-.053,12.065-.027,18.1.044,9.838.187,19.676.179,29.514q-.012,13.994-.058,27.987-.037,16.69-.046,33.381,0,6.1.029,12.2c.011,1.944-.066,3.923.086,5.863a2.178,2.178,0,0,0,.611,1.6,2.064,2.064,0,0,0,2.829,0,2.015,2.015,0,0,0,0-2.829,2.142,2.142,0,0,1,.563,1.269,1.861,1.861,0,0,0-.015-.268c0-.311-.019-.622-.026-.932-.022-1.1-.031-2.2-.039-3.3-.029-3.753-.033-7.506-.036-11.26q-.015-16.236.036-32.474.031-14.595.063-29.19c.013-9.062-.1-18.123-.153-27.184-.065-10.8-.311-21.669.254-32.463.037-.7.08-1.4.144-2.092a2.015,2.015,0,0,0-2-2,2.042,2.042,0,0,0-2,2Z"/><path class="c" d="M49.6,189.016a179.019,179.019,0,0,0-6.268,36.266c-.933,13.689-.253,27.429.882,41.084,1.128,13.557,2.6,27.081,3.661,40.645Q49.3,325.289,50.7,343.57q1.608,20.931,3.239,41.859a2.067,2.067,0,0,0,2,2,161.267,161.267,0,0,0,27.543.308c2.551-.191,2.572-4.193,0-4a161.267,161.267,0,0,1-27.543-.308l2,2q-2.865-36.613-5.66-73.233c-1.045-13.449-2.36-26.865-3.581-40.3-1.233-13.563-2.163-27.19-1.666-40.814a174.826,174.826,0,0,1,6.427-41c.7-2.481-3.158-3.54-3.858-1.063Z"/><path class="c" d="M114.082,190.079a173.475,173.475,0,0,1,6.188,36.17c.845,13.533.147,27.1-.985,40.6-1.131,13.476-2.588,26.919-3.639,40.4q-1.424,18.261-2.822,36.524-1.6,20.829-3.222,41.655l2-2a157.856,157.856,0,0,1-27.006.308c-2.568-.193-2.555,3.808,0,4a157.856,157.856,0,0,0,27.006-.308,2.068,2.068,0,0,0,2-2q2.881-36.846,5.695-73.7c1.053-13.535,2.393-27.035,3.61-40.555,1.222-13.564,2.122-27.2,1.574-40.818a179.323,179.323,0,0,0-6.542-41.343c-.7-2.473-4.56-1.422-3.857,1.063Z"/><path class="c" d="M51.533,191.355h64.079c2.574,0,2.578-4,0-4H51.533c-2.574,0-2.578,4,0,4Z"/><path class="c" d="M102.172,11.714c6.28,1.441,10.01,8.63,11.76,14.236a41.6,41.6,0,0,1,.916,21.175c-.552,2.509,3.3,3.581,3.857,1.064a45.621,45.621,0,0,0-1.147-24.017,32.379,32.379,0,0,0-4.912-9.559c-2.33-3.03-5.6-5.881-9.41-6.757-2.506-.575-3.576,3.281-1.064,3.858Z"/><path class="c" d="M100.317,27.37a26.2,26.2,0,0,1,7.628,16.284,2.054,2.054,0,0,0,2,2,2.014,2.014,0,0,0,2-2,30.534,30.534,0,0,0-8.8-19.112c-1.826-1.819-4.655,1.008-2.828,2.828Z"/><path class="c" d="M94.742,21.963a16.477,16.477,0,0,1-1.977,2.029q-.333.293-.678.572c-.109.09-.219.178-.33.265.34-.269-.124.091-.155.114q-.838.622-1.723,1.177a26.139,26.139,0,0,1-9.163,3.612,2.019,2.019,0,0,0-1.4,2.46,2.04,2.04,0,0,0,2.46,1.4A30.04,30.04,0,0,0,91.9,29.574a22.671,22.671,0,0,0,5.672-4.783,2.059,2.059,0,0,0,0-2.828,2.013,2.013,0,0,0-2.828,0Z"/><path class="c" d="M61.049,33.948A18.092,18.092,0,0,0,57.982,38.2c-.413.792-.833,1.588-1.187,2.41-.4.925-.726,1.874-1.1,2.807a2.009,2.009,0,0,0,.2,1.541,2.038,2.038,0,0,0,1.2.919,2.06,2.06,0,0,0,2.461-1.4c.145-.361.28-.727.415-1.093.071-.191.142-.382.216-.572.042-.109.086-.218.129-.328.118-.3-.049.054-.033.073-.077-.092.528-1.1.594-1.236.187-.369.373-.739.564-1.1a17.73,17.73,0,0,1,1.074-1.83c.1-.15.21-.3.318-.443.154-.212-.016.042-.082.1a3.206,3.206,0,0,0,.207-.253c.293-.353.6-.691.924-1.02a2,2,0,1,0-2.828-2.829Z"/><path class="c" d="M80.78,20.031c-1.681,3.773-4.271,7.536-8.008,9.487a35.853,35.853,0,0,1-12.413,3.55,2.062,2.062,0,0,0-2,2,2.012,2.012,0,0,0,2,2,41.3,41.3,0,0,0,14.432-4.1c4.3-2.244,7.5-6.564,9.443-10.922a2.064,2.064,0,0,0-.717-2.737,2.016,2.016,0,0,0-2.737.718Z"/><path class="c" d="M62.374,99.729a54.47,54.47,0,0,0,21.39,4.642,55.621,55.621,0,0,0,20.3-4.161,2.064,2.064,0,0,0,1.4-2.46,2.014,2.014,0,0,0-2.461-1.4,53.013,53.013,0,0,1-18.852,4.014,49.269,49.269,0,0,1-19.757-4.092,2.068,2.068,0,0,0-2.736.717,2.014,2.014,0,0,0,.718,2.737Z"/><path class="c" d="M68.531,83.98c-.024.239-.05.479-.079.718-.014.12-.029.239-.044.359q.048-.35,0,.006c-.07.478-.146.954-.227,1.431-.089.525-.152,1.055-.253,1.579a6.132,6.132,0,0,1-.2.777c-.163.491.178-.32.02-.021-.062.117-.12.235-.192.347-.275.433.246-.233,0,0-.074.072-.276.215-.314.3.256-.191.3-.223.126-.1-.068.048-.138.093-.209.137-.134.082-.272.156-.413.225-.468.228.261-.1-.148.061l-.079.031c-.127.051-.253.105-.379.158l-1.271.535c-.784.329-1.564.689-2.367.969a2,2,0,0,0,1.063,3.857c1.335-.466,2.619-1.09,3.927-1.624a7.2,7.2,0,0,0,2.961-1.807,6.246,6.246,0,0,0,1.378-3.1c.268-1.61.525-3.227.693-4.851a2.006,2.006,0,0,0-2-2,2.055,2.055,0,0,0-2,2Z"/><path class="c" d="M93.677,84.417c.172,1.5.4,3,.66,4.493a5.794,5.794,0,0,0,1.644,3.311,8.9,8.9,0,0,0,2.906,1.6q1.168.469,2.333.946c.664.271,1.329.54,1.992.812a2.006,2.006,0,0,0,2.461-1.4,2.063,2.063,0,0,0-1.4-2.461q-1.908-.783-3.82-1.554c-.249-.1-.5-.2-.748-.3-.049-.019-.1-.039-.146-.057-.446-.168.29.155-.08-.028-.159-.079-.318-.158-.47-.251-.08-.048-.215-.186-.3-.2.017,0,.3.275.183.135-.046-.054-.11-.1-.16-.148-.075-.073-.138-.158-.212-.231-.136-.133.161.211.16.2a1.27,1.27,0,0,0-.133-.207c-.049-.084-.087-.174-.136-.258-.12-.206.159.44.088.212-.015-.046-.034-.091-.05-.136a5.389,5.389,0,0,1-.179-.662c-.109-.507-.168-1.022-.252-1.534-.068-.418-.142-.836-.206-1.255-.013-.087-.025-.174-.038-.261-.006-.042-.057-.413-.025-.169.035.26-.013-.108-.02-.169-.018-.145-.035-.29-.052-.436a2.049,2.049,0,0,0-2-2c-.981.044-2.127.887-2,2Z"/><path class="c" d="M113.086,50.123a2.15,2.15,0,0,1,3.039.4,4.626,4.626,0,0,1,.442,2.356,14.179,14.179,0,0,1-.2,2.9c-.63,3.449-2.368,7.594-6.2,8.282a2.017,2.017,0,0,0-1.4,2.46,2.043,2.043,0,0,0,2.46,1.4c5.98-1.072,8.835-7.816,9.285-13.237.233-2.809-.015-5.985-2.443-7.8a6.256,6.256,0,0,0-7.814.41,2.015,2.015,0,0,0,0,2.828,2.043,2.043,0,0,0,2.828,0Z"/><path class="c" d="M108.655,62.848a15.873,15.873,0,0,1-.924,4.269c-.063.19-.489,1.307-.217.691q-.2.453-.421.893a36.187,36.187,0,0,1-3.122,5.02c-2.7,3.7-6.374,7.634-11,8.719-2.5.588-1.445,4.446,1.063,3.857,5.6-1.314,9.941-5.889,13.236-10.349,2.842-3.848,5.185-8.21,5.383-13.1.1-2.574-3.9-2.569-4,0Z"/><path class="c" d="M56.387,47.3a6.26,6.26,0,0,0-7.814-.41c-2.43,1.809-2.675,5-2.442,7.8.45,5.42,3.305,12.165,9.284,13.237a2.057,2.057,0,0,0,2.461-1.4,2.017,2.017,0,0,0-1.4-2.46c-3.836-.688-5.574-4.833-6.2-8.282a14.03,14.03,0,0,1-.2-2.739,5.421,5.421,0,0,1,.375-2.408,2.135,2.135,0,0,1,3.108-.513,2.054,2.054,0,0,0,2.828,0,2.015,2.015,0,0,0,0-2.828Z"/><path class="c" d="M54.189,62.636a32.966,32.966,0,0,0,7.03,15.782c3.962,4.691,9.208,8.066,15.382,8.732a2.012,2.012,0,0,0,2-2,2.047,2.047,0,0,0-2-2c-5.221-.563-9.575-3.926-12.812-7.87-3.2-3.9-4.886-8.794-5.743-13.707a2.018,2.018,0,0,0-2.461-1.4,2.045,2.045,0,0,0-1.4,2.46Z"/><path class="g" d="M128.985,109.961c3.847,6.115,4.75,13.5,5.207,18.018,2.968,29.386,5.553,68.1,6.535,80.826.046.594-.615,1.123-1.21,1.15-4.875.22-11.848.739-17.095.787-.559-2.874-1.262-6.541-2.006-10.539l-.371.2c-4,2.489-12.083,3.473-16.791,3.54-.4.006-.362-2.085-.416-2.6-.356-10.926-2.486-31.324-2.1-51.935.509-26.9,3.019-52.594,3.2-56.855,3.9,1.512,17.257,8.277,22.654,14.247A22.915,22.915,0,0,1,128.985,109.961Z"/><path class="c" d="M115.345,128.512c.018.115.037.231.053.347,0-.036-.041-.313-.012-.069s.052.464.073.7c.052.56.088,1.121.116,1.683.064,1.289.083,2.581.081,3.872,0,3.085-.125,6.17-.29,9.251q-.517,9.64-1.6,19.246a28.958,28.958,0,0,0-.337,5.072c.13,2.1.413,4.2.7,6.282.79,5.829,1.793,11.629,2.824,17.418q1.692,9.5,3.55,18.962c.492,2.525,4.348,1.456,3.857-1.063-2.23-11.431-4.43-22.89-6.1-34.418-.507-3.5-1.092-7.136-.664-10.756.74-6.252,1.279-12.534,1.659-18.819.373-6.171.909-12.625-.054-18.769a2.014,2.014,0,0,0-2.46-1.4,2.05,2.05,0,0,0-1.4,2.461Z"/><path class="c" d="M122.72,212.739c3.071-.044,6.139-.2,9.205-.371,1.53-.085,3.059-.175,4.588-.26,1.346-.074,3.073.115,4.313-.48,2.2-1.056,1.872-3.171,1.722-5.189q-.187-2.5-.368-5.008-1.051-14.462-2.139-28.921c-.9-11.737-1.856-23.47-2.946-35.192-.943-10.144-1.142-21.525-7.529-30.027-3.357-4.469-8.2-7.651-12.947-10.485a83.589,83.589,0,0,0-12.144-6.186c-1.276-.5-2.48.756-2.532,1.929-.237,5.311-.806,10.618-1.193,15.92-.726,9.962-1.321,19.934-1.694,29.916-.426,11.392-.436,22.757.109,34.144.428,8.968,1.192,17.918,1.6,26.887.072,1.594-.166,3.692.509,5.164.969,2.115,4.262,1.3,6.117,1.122,4.59-.443,9.646-1.149,13.666-3.573,2.2-1.328.193-4.788-2.019-3.454a22.5,22.5,0,0,1-7.652,2.476c-1.382.252-2.771.437-4.169.567q-1,.095-2.011.152c-.312.018-.623.033-.935.045-.164.006-.96-.1-.568.064l1.2.919c.2.276.034.119.022-.062-.021-.311-.036-.621-.05-.932-.029-.594-.05-1.188-.075-1.782-.06-1.464-.139-2.927-.225-4.389-.208-3.55-.453-7.1-.681-10.647-.566-8.768-1.044-17.544-1.163-26.331-.236-17.337.868-34.717,2.153-52,.351-4.731.854-9.467,1.066-14.206l-2.532,1.928c.087.035.8.331.423.17.243.1.484.211.725.319.734.33,1.461.676,2.183,1.03q2.622,1.284,5.171,2.713a68.322,68.322,0,0,1,10.606,6.984c6.63,5.542,8.8,13.762,9.648,22.045,2.013,19.573,3.485,39.2,4.93,58.826q.48,6.516.95,13.033.191,2.636.384,5.27a23.949,23.949,0,0,1,.264,4.228l.273-1.01c.076-.159.649-.035-.165-.1a6.113,6.113,0,0,0-.74.037q-1.077.056-2.152.117c-1.472.083-2.944.169-4.417.25-2.922.16-5.847.305-8.774.347-2.572.036-2.579,4.037,0,4Z"/><path class="g" d="M32.058,127.941c-1.746,8.713-4.292,23.406-4.9,26.823-.82,4.617-6.56,35.833-7.683,39.919.619.821,15.865,6.34,18.726,6.34,3.481-9.54,10.929-34.539,11.465-44.6l.7-1c.364,4.174.772,8.04,1.143,11,.759,6.042-2.861,23.572-5.252,33.74,4,2.489,13.348,4.068,18.057,4.135.4,0,.361-2.085.415-2.6.356-10.925,2.473-33.254,2.083-53.864C66.313,121.606,63.3,98.11,63,92.913c-3.272,1.271-6.5,2.65-9.672,4.166-5.324,2.546-11.03,6.138-14.7,10.945-3.2,4.185-4.9,13.19-6.384,19.016C32.18,127.332,32.12,127.633,32.058,127.941Z"/><path class="c" d="M47.732,127.448a65.356,65.356,0,0,0-.365,12.265c.178,5.329.551,10.652,1.018,15.963q.321,3.65.717,7.294a50.166,50.166,0,0,1,.507,5.413,78.5,78.5,0,0,1-1.6,13.546c-1.047,5.936-2.306,11.836-3.683,17.7-.588,2.5,3.268,3.573,3.857,1.064,1.21-5.156,2.323-10.336,3.291-15.543a116.083,116.083,0,0,0,2.088-15.095c.209-4.011-.587-8.057-.963-12.042-.49-5.2-.883-10.4-1.124-15.62-.126-2.736-.213-5.475-.193-8.214.008-1.123.033-2.247.1-3.369.025-.442.056-.884.1-1.326.018-.2.039-.4.061-.6q.047-.368,0-.026c.016-.116.034-.232.052-.347a2.063,2.063,0,0,0-1.4-2.461,2.017,2.017,0,0,0-2.461,1.4Z"/><path class="c" d="M47.667,156.426c-.311,5.442-1.767,11.086-3.127,16.5-1.634,6.507-3.49,12.961-5.512,19.357-.87,2.751-1.768,5.494-2.755,8.206l1.929-1.468a1.153,1.153,0,0,1-.3-.016c-.208-.022-.152-.013.17.027l-.134-.021c-.313-.059-.626-.116-.937-.186-.817-.184-1.625-.408-2.429-.641-1.99-.576-3.959-1.228-5.915-1.909-1.872-.651-3.735-1.331-5.575-2.068-.847-.339-.824-.313-1.644-.7-.19-.091-.375-.2-.568-.284-.5-.219.054.087.017.045l.514,1.946c1.373-5.056,2.16-10.323,3.141-15.464q1.92-10.067,3.761-20.147c.993-5.424,1.928-10.858,2.9-16.286,1.612-8.974,3.127-18.028,5.777-26.769a26.086,26.086,0,0,1,2.881-6.827,24.363,24.363,0,0,1,5.992-5.923c5.332-3.922,11.542-6.564,17.673-8.957L61,92.913c.253,4.243.8,8.476,1.2,12.706.731,7.644,1.362,15.3,1.825,22.961.563,9.327.913,18.674.81,28.018-.1,8.724-.522,17.44-1.04,26.148-.243,4.092-.511,8.183-.747,12.276-.095,1.627-.184,3.255-.255,4.884-.028.645-.052,1.29-.08,1.935-.016.359-.023.72-.049,1.079s-.188.6,0,.335l1.2-.919c.446-.182-.374-.062-.571-.072-.279-.014-.558-.032-.836-.052-.718-.053-1.433-.124-2.148-.208-1.6-.189-3.186-.465-4.761-.793a26.335,26.335,0,0,1-8.284-2.774c-2.208-1.336-4.221,2.122-2.019,3.454,3.414,2.065,7.618,2.945,11.5,3.6a59.492,59.492,0,0,0,5.993.737,4.644,4.644,0,0,0,2.663-.241,3.15,3.15,0,0,0,1.231-2.664c.322-3.408.326-6.872.532-10.291.282-4.669.584-9.337.845-14.008.617-11.046,1.018-22.107.755-33.171-.257-10.829-.931-21.646-1.856-32.438-.585-6.832-1.5-13.661-1.911-20.506-.069-1.17-1.241-2.432-2.531-1.929C55.458,93.72,48.39,96.72,42.44,101.414a25.454,25.454,0,0,0-6.489,7.045,37.532,37.532,0,0,0-3.244,8.471c-3.065,10.913-4.813,22.171-6.776,33.321q-1.748,9.929-3.62,19.834c-1.45,7.755-2.752,15.58-4.563,23.261a2.792,2.792,0,0,0,.157,2.548,3.435,3.435,0,0,0,1.285.955,51.289,51.289,0,0,0,4.9,2.018,84.688,84.688,0,0,0,12.1,3.872,10.83,10.83,0,0,0,2.008.284,2.056,2.056,0,0,0,1.928-1.469c1.974-5.423,3.659-10.958,5.264-16.5,1.889-6.524,3.66-13.1,4.991-19.768a64,64,0,0,0,1.282-8.86c.146-2.572-3.854-2.563-4,0Z"/><path class="c" d="M77.257,72.752c1.733,1.7,4.434,2.223,6.768,2.222s5.035-.526,6.769-2.222a2,2,0,0,0-2.828-2.829c-.077.075-.4.339-.085.094s-.1.059-.2.12c-.139.085-.282.164-.427.237a2.444,2.444,0,0,0-.3.139c.131-.093.4-.152.09-.045a9.852,9.852,0,0,1-1.423.39c-.072.013-.606.084-.118.028-.145.017-.291.033-.437.045-.348.029-.7.042-1.045.043-.319,0-.639-.011-.957-.036-.176-.013-.352-.031-.527-.052.272.032.169.023-.04-.014a8.764,8.764,0,0,1-1.443-.382c-.193-.07-.366-.239.033.023a2.354,2.354,0,0,0-.249-.116c-.162-.079-.321-.166-.474-.26-.116-.072-.224-.168-.343-.232.546.3.239.193.061.018a2,2,0,0,0-2.829,2.829Z"/><path class="c" d="M82.857,60.112a25.7,25.7,0,0,1,.6,2.757l-.072-.532a1.619,1.619,0,0,1,.011.381l.071-.532a.909.909,0,0,1-.042.171l.2-.478a.73.73,0,0,1-.06.11l.312-.4a.535.535,0,0,1-.09.088l.405-.312a1.814,1.814,0,0,1-.218.115l.477-.2a1.569,1.569,0,0,1-.368.107l.532-.071a1.531,1.531,0,0,1-.345,0l.531.071c-.13-.018-.258-.049-.388-.067a1.526,1.526,0,0,0-.8-.036,1.487,1.487,0,0,0-.743.238,2,2,0,0,0-.718,2.736l.313.405a2,2,0,0,0,.882.514c.349.047.687.134,1.042.15A3.423,3.423,0,0,0,86,64.93a2.436,2.436,0,0,0,1.313-1.592,3.736,3.736,0,0,0-.013-1.65c-.15-.888-.355-1.768-.584-2.64a2,2,0,0,0-2.46-1.4,2.022,2.022,0,0,0-1.2.92,2.1,2.1,0,0,0-.2,1.541Z"/><path class="c" d="M71.093,56.691c1.114-.338,2.231-.667,3.343-1.012a2.1,2.1,0,0,0,1.195-.919,2.044,2.044,0,0,0,.2-1.541,2,2,0,0,0-2.461-1.4c-1.112.344-2.228.674-3.342,1.012a2.1,2.1,0,0,0-1.2.919,2,2,0,0,0,2.258,2.938Z"/><path class="c" d="M97.951,52.766c-1.117-.337-2.254-.6-3.368-.944a2,2,0,0,0-2.461,1.4,2.027,2.027,0,0,0,.2,1.541,2.138,2.138,0,0,0,1.2.919c1.115.344,2.252.607,3.368.945a2,2,0,0,0,2.461-1.4,2.027,2.027,0,0,0-.2-1.541,2.131,2.131,0,0,0-1.2-.92Z"/><path class="c" d="M97.767,68.05c-.113-.13-.222-.262-.327-.4l.313.405a11.367,11.367,0,0,1-1.229-2.022,1.929,1.929,0,0,0-1.993-.955,1.484,1.484,0,0,0-.744.238,2.017,2.017,0,0,0-.919,1.2l-.071.532a1.987,1.987,0,0,0,.273,1.009,12.69,12.69,0,0,0,1.869,2.824,2.054,2.054,0,0,0,2.828,0,2.01,2.01,0,0,0,.586-1.414l-.071-.532a2,2,0,0,0-.515-.882Z"/><path class="c" d="M52.032,47.73a40.132,40.132,0,0,1-.987-17.544,28.572,28.572,0,0,1,5.033-12.758,35.472,35.472,0,0,1,11.4-9.549A29.318,29.318,0,0,1,81.944,3.991c4.8.065,10.512,1.115,14.025,4.655,1.816,1.83,4.644-1,2.828-2.828C95.077,2.069,89.548.6,84.437.125A32.214,32.214,0,0,0,68,3.147,40.6,40.6,0,0,0,53.849,13.833a30.6,30.6,0,0,0-6.2,12.838,43.968,43.968,0,0,0,.525,22.122c.761,2.451,4.624,1.405,3.858-1.063Z"/></svg>